<svg width="28" height="110" viewBox="0 0 28 110" fill="none" xmlns="http://www.w3.org/2000/svg">
<path d="M26.2838 84.1964C25.6568 83.9642 24.4753 84.0704 23.8746 84.4551C23.0099 84.3821 22.5215 86.0338 21.6436 85.2643C20.2244 84.2229 19.6766 84.4087 20.9505 82.7835C21.1155 81.8946 21.8416 82.1202 22.5347 82.1931C24.3234 82.4585 26.2574 82.0074 27.2541 80.369C27.4258 79.8383 27.5644 79.301 27.9208 78.85C28.1518 78.5448 27.8086 78.1866 27.7822 77.8682C27.7096 76.9064 27.1551 76.3094 26.4159 75.7655C26.0462 75.4935 25.7294 75.3343 25.3201 75.5532C24.6469 76.0971 23.8812 75.1618 23.3135 75.7456C22.9505 76.2563 22.3631 76.2232 21.8746 76.5283C21.3201 76.8135 21.0759 76.8003 20.6271 76.3558C20.1386 75.719 19.3598 75.6328 18.7657 75.1751C18.2772 74.5317 19.4786 74.1138 19.7756 73.6362C20.1452 73.2581 20.5479 73.2448 20.9571 73.5101C21.5776 73.9612 22.3102 73.8551 23.0099 74.0275C23.8152 74.326 24.5347 73.7357 25.3466 73.676C26.3763 73.4173 26.8251 72.3692 27.2013 71.5003C28.2244 69.8419 27.2871 67.4075 25.5908 66.5717C23.6832 65.8023 22.0264 66.0013 20.1914 66.9233C19.1683 67.1024 18.5545 65.6497 17.6634 65.2517C17.0297 64.7675 17.9736 64.2434 18.2838 63.8786C18.7393 63.3745 19.5512 63.4143 20.1056 63.6531C20.5413 63.9317 21.0825 63.8322 21.505 64.1373C21.8086 64.3628 22.264 64.0444 22.5941 64.1041C23.0825 64.2501 23.5842 64.1041 24.0726 64.1837C24.8119 64.3628 25.0957 63.4939 25.8086 63.4474C26.2244 63.3811 26.5281 63.0826 26.6535 62.6647C26.7195 62.4524 26.7459 62.2269 26.9373 62.0942C27.7294 61.4243 27.4324 60.1639 27.3267 59.2685C26.8647 56.9932 24.1122 55.9385 21.9736 56.2304C21.1551 56.4692 20.1914 56.3498 19.505 56.9335C19.2475 57.1657 19.1023 57.1392 18.8647 56.8805C17.2277 55.1492 15.703 55.2553 18.297 53.2454C19.7426 52.3765 22.9637 54.791 25.4126 53.5174C27.3598 52.3566 28.1518 49.6303 27.2277 47.5342C26.231 45.4911 23.5776 45.1992 21.604 45.6967C21.2673 46.1213 20.7063 46.0682 20.2772 46.3203C19.8614 46.5657 19.373 46.5524 19.0033 46.1345C18.6271 45.5641 17.6766 45.4646 17.6832 44.6752C17.9142 43.9721 17.9538 43.4547 16.9637 43.3419C16.33 43.2689 15.5578 42.0152 15.7294 41.5841C16.3168 40.1646 18.9637 41.3187 18.2838 42.5791C18.165 42.9041 17.835 43.1694 17.9604 43.647C20.4093 41.5244 20.6601 43.5741 23.0429 43.1429C24.5149 43.3154 25.637 42.8842 26.6271 41.8494C27.4852 40.7881 27.7426 38.9639 27.1881 37.7235C26.9109 36.8612 26.0528 36.7882 25.3135 36.5428C23.9934 35.8396 22.6667 36.7219 21.3201 36.7152C21.1881 36.702 21.0429 36.8346 20.9043 36.901C19.868 37.4648 19.4456 35.9325 18.6007 35.5743C17.8152 35.0834 19.4258 33.7303 19.9934 33.8364C20.7129 33.9757 21.4918 33.9226 22.099 34.4533C22.2508 34.5859 22.4423 34.6456 22.6205 34.5992C23.2079 34.4599 23.802 34.6059 24.3829 34.5594C27.3796 34.4798 28.8251 30.0687 26.1518 28.4435C23.9538 27.2031 20.9901 29.2992 20.6997 28.1915C20.5215 27.3888 19.67 27.7669 19.6634 27.0439C19.5974 26.2413 20.4753 26.0754 21.0891 25.8366C21.4852 25.5381 21.9142 25.6111 22.3234 25.8035C23.7228 26.427 24.7261 26.5862 26.1584 26.029C26.8449 26.029 26.7591 25.2396 27.0099 24.8416C27.5776 24.1717 27.2871 23.2762 27.3069 22.5067C27.439 21.7903 26.9307 21.3791 26.5083 20.9147C25.3664 19.3493 23.2079 21.5051 22.1254 20.2713C21.4588 19.608 20.1518 17.9563 21.7624 17.6246C23.1287 17.1934 22.8185 17.1934 23.5578 18.1884C25.1221 19.4023 27.4456 18.8584 27.6106 16.6429C27.868 16.0061 27.67 15.4091 27.4786 14.8187C27.2343 14.036 26.1716 14.162 25.505 14.235C23.4918 14.9514 23.4522 15.8734 22.7789 13.1206C22.6139 12.5767 23.2343 12.2715 23.5446 11.9399C24.2112 11.3959 24.1914 10.3943 24.9637 9.90344C25.8746 8.26502 26.8779 6.63323 27.2013 4.74937C27.5578 3.15074 27.736 -0.630235 25.1815 0.112694C23.5842 0.358126 22.7459 1.69142 21.7096 2.74611C21.1881 3.20381 20.7129 3.66814 20.5149 4.37127C19.6238 6.28166 18.8911 8.27829 18.8647 10.4208C19.1683 12.3379 17.6502 13.2665 16.3829 14.3677C15.1155 15.031 15.2475 12.1588 13.2475 13.2997C12.4951 13.963 11.505 14.434 11.2673 15.5616C10.5479 16.7026 9.8944 18.6063 11.0363 19.6743C12.4093 20.7688 13.3532 19.4753 14.5083 19.9529C15.0495 20.2116 14.8251 20.928 15.2409 21.2995C15.7294 22.0556 14.5545 22.6195 14.099 23.0573C12.1254 23.9926 12.5215 22.845 11.2343 22.4669C9.47856 21.8036 8.13863 22.1087 6.91091 23.5481C6.37625 24.0324 6.66008 24.8615 6.40266 25.4917C6.23104 26.0091 6.56107 26.5398 6.55447 27.0572C6.50167 27.7603 7.10233 28.1185 7.47856 28.6093C8.8713 30.6391 11.5446 28.0389 12.7855 29.465C13.2739 30.4733 13.472 30.2743 12.5809 31.0836C11.901 31.8066 10.7855 32.2908 9.8218 31.7734C9.33995 31.6076 8.73929 31.7403 8.27724 31.4882C7.59737 31.2229 6.92411 31.4816 6.25084 31.4351C5.94721 31.4816 5.73599 31.8 5.39936 31.7668C5.16833 31.7668 4.99011 31.9061 4.8317 32.052C4.13203 32.7087 3.26734 33.1532 3.21454 34.2012C2.45546 36.2509 4.46206 38.0021 6.38945 38.148C7.74919 38.6057 9.61058 36.556 10.6403 37.7832C11.6634 39.0701 10.7327 39.6206 9.74259 40.4365C8.71949 41.2922 8.01322 39.7931 6.97691 39.7865C5.22774 39.4747 4.98351 39.0701 3.20133 39.7865C2.78549 39.813 2.41586 39.9589 2.27064 40.4299C1.68318 40.9606 1.16833 41.5111 1.02972 42.327C0.772292 43.7266 0.897704 45.2457 1.52477 46.5193C1.72279 46.9703 2.35645 46.9173 2.67328 47.2754C3.52477 48.1112 4.77889 47.8857 5.868 47.9918C6.8317 48.2041 7.52477 47.2091 8.40266 47.355C9.00332 47.5474 9.54457 47.7995 9.8482 48.4296C9.96701 49.0664 11.0429 49.7099 10.3763 50.3002C9.63698 50.8707 8.8779 52.2106 7.8548 51.5075C6.67328 50.8641 5.8284 50.2737 4.41586 50.2538C3.46536 49.9354 1.8746 50.2803 1.20794 50.9238C-1.1023 53.7893 -0.105596 59.4874 4.21124 59.2353C5.54457 59.494 6.71949 58.8506 7.90101 58.3597C8.29044 57.9285 8.62708 58.0015 8.99011 58.3929C9.61718 58.6847 10.1782 59.0695 10.5479 59.6731C10.7525 60.1971 9.58417 60.9467 10.9175 60.8936C11.67 60.8472 12.0924 61.5304 12.4885 62.0412C12.8251 62.4723 12.1122 63.5204 11.5908 63.4806C9.54457 62.8239 10.4621 60.6216 9.37295 61.7294C9.28714 61.8156 9.19474 61.9019 9.05612 61.8886C8.29044 62.1539 7.99341 61.212 7.30695 61.2186C4.99671 60.9002 3.10893 60.9334 1.52477 62.9035C-0.013187 64.4225 0.561071 67.0957 1.94721 68.5617C3.06932 69.8021 4.77889 69.3842 6.23764 69.3046C6.99672 69.371 7.27394 68.575 7.92741 68.429C8.62048 68.4091 9.04952 67.3876 9.76899 67.9846C10.2838 68.3494 10.8713 68.5418 11.3135 69.0061C11.9868 69.4506 11.2145 70.0078 11.0495 70.5185C9.55777 73.1188 9.57097 69.6031 4.77229 71.3013C3.24754 71.4406 2.91751 73.4239 2.97031 74.6643C3.11553 77.51 6.38945 78.8102 8.8317 77.9611C9.45216 77.5697 10.5215 76.661 11.1881 77.3707C11.7492 77.9478 12.2046 78.6244 12.9241 79.049C13.2475 79.2347 13.2673 79.7587 13.0099 80.0506C12.6601 80.3358 12.2376 81.0655 11.7228 80.7272C10.7657 80.0307 9.41916 80.223 8.29704 80.1236C7.33995 80.0174 6.72609 80.6874 6.09242 81.3242C5.47196 81.9676 5.8878 83.0289 5.78879 83.8382C5.8416 84.5546 6.55447 85.0256 6.75249 85.722C7.10893 86.6175 7.92741 86.916 8.66008 87.387C9.13533 87.8779 9.76239 87.513 10.3366 87.5794C11.5842 87.8911 12.4885 86.6441 13.67 86.5247C14.3432 86.6308 14.5479 87.5794 15.2937 87.6722C16.7261 88.183 15.9076 89.8082 14.9901 90.4516C14.1584 90.9159 13.538 89.9077 12.2112 90.5179C11.538 90.6639 11.2079 90.9491 11.1485 91.619C11.0891 92.216 10.7789 92.8263 11.1287 93.4432C11.1617 93.8279 11.1089 94.2458 11.2937 94.6239C11.4786 95.2143 11.5842 95.8312 12.0858 96.2756C12.3697 97.1645 12.8317 97.8013 13.7558 98.1197C15.4786 99.0749 16.231 96.4481 17.5974 97.3171C18.4225 98.4381 19.802 99.3336 20.3102 100.601C20.3499 102.113 20.165 103.685 20.7393 105.124C20.8383 106.968 22.3102 108.023 23.4522 109.29C23.7822 109.496 24.198 109.582 24.5347 109.801C25.1947 110.159 25.934 109.92 26.6271 109.814C27.8812 109.529 27.4984 106.657 27.4786 105.443C27.4918 105.178 27.3664 104.879 27.2211 104.66C26.7987 104.183 26.7987 103.486 26.3565 103.022C26.3895 102.199 25.4588 101.927 25.3399 101.191C25.2805 100.64 24.6271 100.965 24.3961 100.023C24.2838 99.7714 24.0528 99.5326 24.132 99.2407C24.3234 98.511 23.9934 96.9257 25.3003 97.3967C27.4456 98.8095 28.2178 95.6057 27.4984 94.0866C27.1683 93.6886 27.3928 93.0253 26.7921 92.8661C24.7327 91.692 23.7096 95.4664 22.7459 94.1463C22.4423 93.483 22.165 92.9324 22.3895 92.2028C22.4555 91.765 22.8317 91.5063 22.8845 91.1149C22.9703 90.4715 23.3466 90.2924 23.9076 90.2791C25.2145 90.0868 25.637 90.5975 26.6205 89.4699C27.769 88.7999 27.571 87.513 27.9472 86.4185C27.9802 86.3456 27.9472 86.2328 27.9208 86.1466C27.7756 85.1582 27.1353 84.601 26.2838 84.1765V84.1964ZM26.6007 15.1238C27.7228 16.2847 25.835 19.3824 24.1254 16.2847C23.8416 15.3295 25.9934 14.1289 26.6007 15.1238ZM25.0561 94.2989C26.4027 93.3105 26.9241 95.3868 26.5545 96.3685C26.3102 97.337 24.5545 96.4481 24.5281 95.7582C24.5215 95.1878 24.7393 94.6704 25.0561 94.2989ZM21.0099 85.7552C21.4984 86.193 21.2277 86.5578 20.7789 86.9293C20.6403 87.0885 20.2178 87.3472 20 87.0951C19.4126 86.6175 18.3631 86.1598 19.0693 85.2577C19.637 84.4816 20.5149 85.2975 21.0165 85.7552H21.0099ZM13.9274 68.4954C14.0396 68.4755 14.2046 68.4954 14.2706 68.575C14.9307 69.2516 16.3697 69.4041 15.9406 70.6777C15.4654 71.8651 14.2706 70.8966 13.802 70.2134L13.7822 70.2267C13.1353 69.7424 12.9109 68.701 13.9208 68.4954H13.9274ZM13.1485 65.3512C12.4489 64.993 12.5941 63.9118 13.1617 63.4673C14.099 62.7509 14.7195 63.8388 15.4126 64.3098C15.802 64.7343 15.6502 65.7028 15.1485 65.9747C14.2904 66.8636 13.7558 65.915 13.1485 65.3512ZM16.3234 73.8617C16.6205 74.2929 17.5446 74.797 17.0297 75.3675C16.6403 75.7588 16.033 76.462 15.4852 75.9379C15.1023 75.321 13.5776 74.525 14.1386 73.7556C15.34 72.4621 15.3928 72.7871 16.3234 73.8551V73.8617ZM15.4258 78.3856C16.3631 78.4984 16.7327 79.5332 17.5314 79.9643C17.9604 80.243 17.9472 80.6078 17.5908 80.9726C16.8647 81.9079 16.2772 81.0323 15.7162 80.4154L15.703 80.4287C15.1551 79.9842 14.2112 78.5249 15.4258 78.3856ZM16.8251 83.4601C17.2607 82.9162 17.736 83.5463 18.198 83.6856C18.6997 83.8581 18.9505 84.7602 18.5149 85.145C17.835 85.5894 16.0924 84.2097 16.8251 83.4535V83.4601ZM18.2046 87.6722C18.6007 87.9044 19.1089 87.9508 19.3796 88.3886C19.9208 88.8596 19.3465 89.4168 18.8581 89.6224C18.2442 89.7352 17.9076 88.8596 17.4918 88.508C17.1353 88.1366 17.7822 87.3538 18.2046 87.6656V87.6722ZM19.835 83.2611C18.9769 83.9311 17.2145 82.1268 18.5149 81.3971C19.0363 80.6343 19.67 81.2844 20.3235 81.4436C20.8977 81.6293 20.1914 83.009 19.835 83.2611ZM22.6865 77.112C23.0495 76.8135 23.3465 76.2829 23.8548 76.2431C24.8779 76.1701 25.9934 76.4421 26.4357 77.4437C27.0099 77.6692 26.8317 78.1999 26.8317 78.6576C26.8713 79.3939 26.6997 80.0307 25.9934 80.3756C25.6898 81.0721 23.4786 81.6293 23.2211 80.8797C22.7657 79.9975 26.132 78.6377 25.1683 77.981C24.6997 78.2463 22.165 77.8682 22.6865 77.0988V77.112ZM20.8647 78.7239C21.4786 77.9412 22.3168 78.0938 23.1287 78.4055C23.8614 79.0755 22.9901 80.0373 22.3499 80.4154C21.3465 80.8731 19.3334 79.7654 20.8647 78.7239ZM19.9472 76.8135C20.9373 77.4238 20.0528 78.4055 19.3201 78.777C18.4225 79.0092 17.9076 77.7687 17.1617 77.2978C16.297 76.6411 17.0825 76.0374 17.6832 75.5665C18.4225 75.0358 19.0429 76.6676 19.9472 76.8135ZM18.5017 73.53C18.198 73.8153 17.5908 74.127 17.3135 73.7622C17.1419 73.278 16.6865 73.0923 16.3697 72.7606C15.5908 72.2034 16.5875 71.162 17.2937 71.3013C18.264 71.5334 19.7492 72.6346 18.5083 73.5234L18.5017 73.53ZM21.5446 67.5203C21.8944 67.0957 22.297 66.8437 22.9043 66.8702C24.4225 66.8901 24.5347 67.0294 25.5776 68.1836C26.8581 69.2648 27.0165 70.6777 26.0396 72.0442C25.5248 73.1851 20.6205 72.9264 22.0066 71.6064C22.6403 70.8635 23.4456 70.4588 24.4159 70.3792C24.6535 70.3328 25.0363 70.3593 25.1485 70.1073C25.1485 69.9547 24.9703 69.7292 24.8251 69.696C24.1716 69.6628 23.7492 69.0857 23.1287 68.9862C22.7393 68.3693 20.9769 68.4887 21.5446 67.5203ZM20.6073 68.3229C21.2409 68.6081 21.67 69.1985 22.3631 69.3378C23.34 69.6827 22.5875 70.3792 22.1122 70.7573C21.1287 72.011 19.9208 71.288 18.9505 70.4456C17.6898 69.3511 19.538 68.104 20.6007 68.3229H20.6073ZM18.0858 66.6181C19.5974 67.6065 17.3994 69.4638 16.7195 68.4158C16.4753 67.9183 16 67.8055 15.6172 67.4871C14.8647 66.9034 15.4786 66.386 16 65.9482C16.7063 65.2384 17.604 66.0212 18.0858 66.6181ZM17.2673 64.0444C16.9439 64.396 16.5413 64.3363 16.1452 64.2633C15.6568 64.0975 15.7228 63.3678 15.1485 63.2418C14.3961 62.7509 14.4291 62.1805 15.1617 61.6564C16.3234 60.2833 16.6139 61.8621 17.67 62.1473C17.9604 62.1805 18.0726 62.3994 18.0792 62.6846C18.1782 63.3214 17.6898 63.6597 17.2739 64.0511L17.2673 64.0444ZM23.3135 56.7876C24.4093 57.1193 25.1089 57.6897 26.0132 58.5852C26.8581 59.4343 26.7393 61.1656 25.9604 62.1937C25.4192 63.2352 20.5017 63.3612 21.2673 61.7029C21.8878 60.9467 23.1815 60.5155 24.1386 60.4094C24.3829 60.3762 24.7723 60.3232 24.7855 60.0047C24.8449 59.4476 22.1782 59.4608 21.2079 58.3663C19.9868 57.1989 22.5413 56.7942 23.3135 56.7876ZM20.3499 58.7842C21.4192 59.7461 23.373 59.1557 21.2079 60.94C21.2079 60.94 21.2079 60.94 21.2145 60.9467C20.231 62.1208 19.4588 61.8223 18.4357 60.8339C18.1518 60.3298 16.7987 60.3497 17.472 59.5603C18.1254 58.7842 19.505 57.7163 20.3499 58.7776V58.7842ZM17.3267 58.4061C16.9703 58.9103 15.6832 59.2884 15.4258 58.5056C15.3334 57.7163 13.9472 57.3382 14.7327 56.4891C15.1551 56.1044 15.7426 55.315 16.3499 55.7727C17.1353 56.4559 18.8383 57.4974 17.3267 58.4061ZM14.6733 54.0878C15.3598 54.4593 15.505 55.0032 14.9373 55.5405C14.3829 56.1906 13.4456 56.7942 12.8251 55.839C12.1782 54.9369 12.2904 54.8905 13.0561 54.194C13.5534 53.7429 14.0924 53.7075 14.6733 54.0878ZM12.7195 48.9205C13.1287 48.5026 13.7426 47.9056 14.2904 48.4495C14.9175 49.0797 16.0594 49.9818 15.2409 50.9105C14.6997 51.5738 13.6964 52.1841 13.1221 51.2024C12.4621 50.3135 11.3003 49.9288 12.7129 48.9205H12.7195ZM17.1221 53.5373C15.9142 55.3084 14.1716 53.0066 15.2277 51.6866C16.6073 49.9553 19.439 52.2173 17.1221 53.5307V53.5373ZM21.4852 46.6652C21.9406 46.6387 22.2442 46.2805 22.7063 46.2539C23.2673 46.2208 23.7822 46.1412 24.2838 46.5524C25.0099 47.0499 26.2574 47.0234 26.3433 48.1709C26.6865 49.5175 27.1419 49.8492 26.165 51.083C26.0066 53.199 19.2673 52.8076 21.67 50.685C22.0066 50.1477 22.7393 50.287 23.2079 49.9818C23.5446 49.3517 24.6139 49.7696 24.6997 49.1062C24.6997 48.9072 24.6073 48.7613 24.4489 48.8011C23.9472 48.9404 23.5512 48.7547 23.1419 48.4893C22.5017 48.1112 21.637 48.151 21.2343 47.4347C20.9703 47.1096 21.0891 46.6851 21.4918 46.6586L21.4852 46.6652ZM20.1518 47.8525C20.7987 47.9388 21.3267 48.5756 21.9868 48.6618C22.4159 48.7348 22.6469 49.2522 22.3234 49.4578C21.8086 49.7828 21.5314 50.3268 21.0627 50.6651C20.6271 50.8972 19.9274 51.1294 19.4918 50.8508C18.3036 50.2737 17.2475 49.7032 18.7129 48.5291C19.0165 48.0184 19.6898 48.1709 20.1452 47.8592L20.1518 47.8525ZM17.6898 45.4911C18.0198 45.9952 19.1749 46.6188 18.6601 47.2754C18.0462 47.7199 17.2409 49.1659 16.4555 48.297C15.7096 47.2754 14.4225 47.0565 15.9934 45.9488C16.4555 45.4845 17.1221 44.8344 17.6964 45.4911H17.6898ZM15.4126 45.7166C15.1221 46.2407 13.9142 46.3733 13.7558 45.6171C13.7558 45.239 13.5116 45.0997 13.2079 44.9604C11.8218 44.2042 14.132 42.0351 15.1419 42.798C15.67 43.8527 16.7195 44.7415 15.4126 45.7166ZM15.2409 40.3039C14.9109 40.5758 14.5479 41.1595 14.1122 40.682C13.7294 40.211 13.0033 39.4084 13.0759 38.8047C13.373 38.1082 14.6139 37.5046 15.0957 38.2276C15.6898 39.2359 16.6073 39.2425 15.2343 40.3039H15.2409ZM14.0858 34.7252C14.1584 33.7966 15.3333 34.2211 15.9538 34.042C16.2838 33.9691 16.4687 34.3405 16.6403 34.5926C16.8845 34.9972 16.4423 35.3488 16.198 35.6207C15.4654 36.503 14.1584 35.7269 14.0858 34.7252ZM17.8416 26.9643C17.4522 27.0771 17.2211 27.5414 16.8317 27.5679C15.9472 27.3623 15.2277 26.3607 16.2376 25.7438C17.1419 24.4569 18.8119 26.1285 17.8416 26.9709V26.9643ZM17.3267 21.4255C17.769 21.0673 18.1782 21.1336 18.4687 21.6178C18.9109 22.4205 19.0297 22.4669 18.2178 23.17C17.0891 24.437 16.2508 22.1153 17.3267 21.4255ZM16.5347 29.8033C17.8746 30.5861 15.9538 32.8613 15.0825 31.4285C13.9736 30.5927 15.6304 29.1466 16.5347 29.8033ZM21.7426 37.5112C22.9373 37.4117 24.4819 36.4632 25.4456 37.5643C25.7822 37.9159 26.5149 37.7898 26.5149 38.4532C26.6271 39.342 26.7591 40.4166 26.0264 41.0932C25.5842 41.4647 25.2343 41.9157 24.5875 42.0617C23.9274 42.2607 21.1881 42.3071 21.901 41.1065C22.6007 40.3702 23.3069 39.6273 24.4093 39.8064C24.5017 39.8196 24.5677 39.7268 24.5413 39.6671C24.4555 39.5278 24.3102 39.5145 24.1584 39.5145C23.7756 39.3818 23.3862 39.1364 22.9769 39.0767C22.3697 39.0037 22.033 38.5062 21.5512 38.2475C21.2871 38.0883 21.4258 37.5444 21.7426 37.5112ZM21.9604 39.2293C22.6403 39.3686 22.2772 40.2707 21.7624 40.3503C21.2871 40.3636 20.9703 40.6554 20.6337 40.934C20.0858 41.4249 19.6634 40.6422 19.3135 40.2906C18.3565 39.2956 18.4621 39.3951 19.3994 38.5062C20.2904 37.7368 21.0561 39.1762 21.9604 39.2293ZM18.4093 36.5096C18.8779 36.901 19.538 37.8694 18.6997 38.2276C18.0792 38.3404 17.3664 38.6522 16.8647 38.1082C16.4753 37.7434 15.934 37.0933 16.1056 36.5229C16.6139 35.5411 17.8548 35.5478 18.4093 36.503V36.5096ZM18.8383 33.7037C18.4753 34.2477 17.6634 34.2278 17.1881 33.9293C17.0627 33.4848 16.3433 33.2858 16.5809 32.7751C16.8845 32.2245 17.5842 31.8464 18.1386 32.0056C19.1155 32.2908 20.0792 32.8679 18.8383 33.7037ZM25.9472 29.1466C27.0033 30.062 27.1287 32.052 25.8416 32.9011C25.5116 33.2858 24.8119 33.644 24.2442 33.518C23.6568 33.1731 22.7591 33.518 22.4093 32.8149C22.2838 32.6092 22.4357 32.2311 22.6667 32.2311C23.4852 32.1714 24.1188 31.5744 24.9439 31.5081C25.1419 31.4948 25.3003 31.3953 25.406 31.2295C25.6106 30.8448 25.1617 30.7652 24.8779 30.8315C24.2442 30.8315 22.2046 30.3075 22.198 29.5579C22.1386 28.2976 25.2277 28.7022 25.9406 29.14L25.9472 29.1466ZM22.6337 30.6657C23.0033 30.8381 23.3333 31.4749 22.8383 31.6806C22.1518 31.8862 21.5842 32.4567 20.8251 32.2311C20.6931 32.2112 20.5677 32.1515 20.5281 32.0321C20.1518 31.2693 18.7657 31.0769 20.0066 30.1284C20.9373 29.2063 21.868 29.9957 22.6337 30.659V30.6657ZM18.0726 29.7171C17.7162 29.3191 16.9043 28.2445 17.67 27.9261C18.6403 27.8134 18.9175 27.0107 19.67 28.1185C21.0891 29.0405 19.0165 30.7121 18.0726 29.7171ZM20.264 25.4718C19.5446 25.8698 19.1221 26.2612 18.6733 25.6376C17.4192 24.3773 18.198 23.5548 19.6832 23.6609C20.3102 23.966 21.4456 25.107 20.2574 25.4784L20.264 25.4718ZM25.9802 21.6974C27.0099 22.4205 26.8317 24.1252 26.0132 24.9146C25.5314 25.5182 23.4456 25.5647 23.868 24.3707C24.1188 23.9793 24.5215 23.8201 24.9637 23.7737C25.3928 23.7007 25.439 23.0374 25.0165 22.971C24.3961 22.9113 24.099 22.3674 23.6238 22.0888C22.5413 20.9479 25.5776 20.5897 25.9736 21.7041L25.9802 21.6974ZM23.2145 22.2613C24.1518 23.0904 23.2937 23.9528 22.2706 23.8997C21.769 23.9594 21.5116 23.3956 21.2079 23.0904C20.8317 22.646 21.3994 22.2347 21.7162 21.9628C22.2574 21.4786 22.8053 21.7372 23.2145 22.2679V22.2613ZM21.4786 20.7953C21.2409 21.2331 20.8713 21.5781 20.3433 21.6444C19.6172 21.4918 19.3598 20.6096 19.2607 19.9728C19.4984 18.8518 20.4027 18.8783 20.9769 19.7937C21.1947 20.0988 21.703 20.3575 21.472 20.7953H21.4786ZM20.7657 17.545C20.066 17.6312 20.1056 16.6694 19.9406 16.1984C19.8218 15.6943 20.3433 15.3958 20.6535 15.0841C20.6535 15.0841 20.6535 15.0907 20.6601 15.0973C22.5875 13.0078 23.0165 17.4455 20.7657 17.545ZM20.264 6.22196C20.8779 5.3928 21.0099 4.27841 21.6898 3.52221C22.6865 2.38792 24.3829 1.37965 25.7558 2.43435C27.0693 4.40444 25.8614 6.83886 24.8845 8.70945C24.8317 8.84875 24.6733 8.96815 24.6601 9.10745C24.6073 9.72434 24.0462 10.1091 23.9538 10.7127C23.9142 10.9515 23.6502 11.0974 23.4456 11.2367C22.1188 11.9465 22.4159 8.45738 22.9769 7.86702C23.3532 7.25012 23.6502 6.54036 23.8614 5.83723C24.0726 4.34474 22.3234 4.7759 22.2442 6.40769C22.1056 7.32972 21.8416 8.23185 21.3994 9.05438C20.9769 9.41921 20.8251 9.92998 20.6139 10.4142C18.3961 12.7491 19.9604 7.01132 20.264 6.21533V6.22196ZM20.9571 10.8852C22.1914 10.527 21.4324 12.0792 21.703 12.6695C21.9802 13.313 21.3796 13.6513 20.9835 14.036C19.67 15.4024 19.505 14.2881 19.4456 13.0012C19.1617 12.0062 20.297 11.3893 20.9637 10.8852H20.9571ZM19.7624 17.7971C19.9208 18.2946 19.9208 18.3145 19.472 18.7191C18.1848 19.8335 17.3267 16.676 19.1155 16.8949C19.5908 16.9215 19.6436 17.4322 19.7624 17.7904V17.7971ZM17.2673 14.1156C17.9934 13.3926 18.3234 13.5584 18.8581 14.4141C19.4588 15.1835 18.6337 17.0011 17.5908 16.5434C17.1683 16.1653 16.9769 15.6213 16.6535 15.1769C16.5347 14.7657 17.0429 14.4075 17.2739 14.109L17.2673 14.1156ZM17.505 20.1917C17.4654 21.001 16.3631 21.3127 15.9274 20.6229C15.5908 19.9065 15.1089 19.4156 15.9604 18.8385C17.0825 17.8435 17.6238 19.1237 17.505 20.1851V20.1917ZM13.406 19.1702C12.3763 19.8998 11.3532 19.0508 11.0495 17.9894C10.8515 17.1337 11.5776 16.4306 11.7756 15.6412C12.1782 14.434 13.7822 13.7508 14.7855 14.6264C15.6502 15.3958 14.4357 16.4571 13.5908 16.477C12.5545 16.5235 12.9703 17.147 13.4258 17.6047C14.1914 18.3211 14.2706 18.5201 13.3994 19.1702H13.406ZM14.5677 17.9961C14.231 17.6445 13.9736 17.3659 14.264 16.948C14.5875 16.5168 15.1221 15.9331 15.703 16.2449C17.1089 17.147 15.7096 19.2498 14.5677 17.9961ZM14.33 23.3292C14.9835 23.2563 15.4324 22.2944 16.033 22.971C17.8152 24.1319 15.439 26.5066 14.2376 24.8881C13.6634 24.4768 13.4654 23.4951 14.33 23.3359V23.3292ZM11.0033 28.0455C10.8647 28.5297 10.2574 28.3904 9.8878 28.5496C9.06272 28.8614 8.48186 28.417 8.00002 27.7669C7.15513 27.0572 6.79209 25.7172 7.50497 24.762C7.60398 24.6625 7.61058 24.4768 7.65018 24.3309C7.74919 23.8931 8.14523 23.8201 8.51487 23.767C9.36635 23.2231 10.2442 23.4752 11.1155 23.6742C12.4291 24.4171 10.1188 25.3789 9.39935 25.3126C8.73269 25.4121 8.56767 26.1086 9.26734 26.3076C9.94721 26.3739 10.2772 26.9842 10.8053 27.2893C11.0693 27.4485 11.0891 27.7603 11.0033 28.0522V28.0455ZM11.3267 26.6857C10.5545 26.1418 10.7723 25.16 11.7228 25.0207C12.2244 24.9876 12.7063 25.0207 13.0363 25.5116C13.3201 25.9295 14.066 26.354 13.538 26.8913C12.8119 27.8001 11.9538 27.5016 11.3333 26.6791L11.3267 26.6857ZM15.3135 28.9874C14.9637 29.7901 13.8284 29.8166 13.4522 29.067C13.4588 29.067 13.4654 29.0538 13.472 29.0471C11.7822 27.5149 15.9076 26.4005 15.3135 28.9874ZM12.5149 31.9127C12.5149 31.9127 12.5149 31.9127 12.5083 31.9061C13.3466 30.8514 14.8383 31.5744 14.8185 32.8215C14.4753 33.717 13.0891 34.387 12.3895 33.4583C11.538 33.0006 11.8746 32.3572 12.5215 31.9127H12.5149ZM9.00332 36.4764C8.77229 37.2061 7.8944 37.0204 7.35315 37.3255C5.76239 37.8164 4.49506 36.5892 3.78879 35.3421C3.61058 34.7916 3.97361 34.1747 4.06602 33.6241C4.14523 33.3389 4.42246 33.1996 4.66668 32.9475C5.13533 32.1847 9.62378 31.8663 8.18483 33.4384C7.78219 33.6838 4.8845 34.2874 5.76239 34.9508C6.33005 35.2891 6.99672 34.8977 7.53797 35.3222C8.00002 35.7932 9.32675 35.5146 9.00332 36.4698V36.4764ZM8.37625 35.0436C7.48516 34.3538 8.8383 33.8762 9.37955 33.6838C10.2376 33.12 10.9109 34.1017 11.4324 34.6456C11.8284 35.0237 11.4588 35.4483 11.1089 35.7202C10.2442 36.7219 9.26074 35.4151 8.37625 35.0436ZM11.1089 36.6688C11.472 35.7202 12.6073 35.4947 13.1023 36.2111C13.7426 36.8811 13.9604 37.2194 13.1683 37.8628C12.3499 38.7848 10.8845 37.7235 11.1089 36.6754V36.6688ZM10.1122 40.9008C10.7393 40.5427 11.1485 39.2293 11.9802 39.7533C12.4621 40.1646 14.1518 41.0932 13.538 41.8229C12.4027 42.7449 11.8482 44.2308 10.6601 42.4132C10.3102 41.9821 9.49837 41.4249 10.1122 40.8876V40.9008ZM4.33005 46.8775C3.72939 46.6055 3.06272 46.506 2.69968 45.8957C2.00001 45.2722 1.901 44.3037 1.63698 43.4414C1.49176 42.2209 2.62048 41.0667 3.73599 40.861C4.71949 40.9539 6.73269 40.8345 7.02312 42.0086C7.00992 42.2607 6.8449 42.5326 6.57427 42.526C6.02642 42.5127 5.72279 42.9903 5.22114 43.0898C4.8647 43.249 3.30034 43.2424 3.56437 43.8062C3.901 44.2838 4.60067 44.2175 5.07592 44.443C5.62378 45.1064 6.51487 45.2987 7.04952 45.9621C7.8812 47.229 5.01652 47.428 4.33665 46.8841L4.33005 46.8775ZM7.64358 45.5176C7.26734 45.2457 6.8779 45.0002 6.59407 44.6221C6.29704 44.2573 5.37955 44.1114 5.8878 43.5077C6.91751 42.3005 8.58087 42.1545 9.43236 43.6139C9.43236 43.6139 9.43896 43.6139 9.44556 43.6072C9.76899 44.0119 10.5479 44.5226 10.033 45.0599C9.35975 45.8161 8.53467 46.2539 7.65018 45.5243L7.64358 45.5176ZM10.0066 47.6336C8.93731 47.1826 10.1122 46.1412 10.6799 45.8161C11.6172 45.2788 12.3102 46.5126 12.7987 47.1494C13.1881 47.6071 12.8845 48.1311 12.3961 48.4761C11.0231 49.8624 11.0957 47.952 10.0066 47.6403V47.6336ZM10.099 51.3417C10.099 51.3417 10.0924 51.335 10.0858 51.3284C10.5941 50.7447 11.3465 50.2007 11.8812 51.083C12.2244 51.7927 13.604 52.3168 12.7591 53.1857C12.5875 53.3648 12.3697 53.5041 12.2178 53.6965C11.802 54.2072 10.7987 54.3266 10.4357 53.7495C9.71619 52.5556 8.34325 52.6484 10.1056 51.335L10.099 51.3417ZM6.97031 57.9153C6.03302 58.2735 5.08252 58.6051 4.07922 58.3796C3.47196 58.2469 2.69968 58.2536 2.28384 57.7229C1.13533 56.1508 -0.0461902 53.398 2.00662 52.0846C2.64688 51.1626 4.21124 51.1692 5.20794 51.6402C5.61718 51.9387 7.04952 51.9254 6.54127 52.7214C5.39275 54.3996 3.12213 53.7761 2.75909 54.7047C2.75909 54.9435 2.9043 55.1359 3.16173 55.1293C4.12543 55.0961 4.98351 55.4145 5.835 55.8258C6.44886 56.1508 7.96041 57.2917 6.96371 57.9219L6.97031 57.9153ZM7.78879 56.3034C7.36635 55.2354 4.32345 55.2951 5.98021 54.0281C6.35645 53.5439 6.92411 53.5506 7.41916 53.2587C8.31685 52.9469 9.04292 54.2338 9.66338 54.7512C10.7591 55.7196 8.56107 57.2917 7.78219 56.31L7.78879 56.3034ZM10.7195 58.897C10.3366 58.5919 10.0264 58.1939 9.70959 57.8158C9.35315 57.3116 10.1386 56.9136 10.4357 56.5886C11.0231 56.0712 11.472 56.8075 11.901 57.2188C13.2277 58.0944 11.901 59.7195 10.7195 58.897ZM12.2376 59.3215C12.8581 58.4128 13.3994 58.3796 14.1584 59.1822C15.67 60.3629 13.8218 62.4723 12.7129 60.6415C12.3829 60.2635 11.8218 59.8389 12.2442 59.3149L12.2376 59.3215ZM7.59738 67.7856C6.8647 68.4821 5.68318 68.429 4.77229 68.8204C4.17163 69.0128 3.70959 68.4025 3.16833 68.2433C2.15843 67.8121 1.90761 66.6712 1.49176 65.7625C1.12213 64.6282 3.20794 62.9632 4.15843 62.7045C5.06932 62.1672 6.09242 62.7841 7.02972 62.9035C8.11883 63.3081 6.78549 64.1771 6.37625 64.5884C5.868 64.993 5.49836 65.59 4.78549 65.663C4.56107 65.6829 4.33665 65.8553 4.13203 65.988C3.78219 66.5916 4.78549 66.5518 5.15513 66.4855C5.8548 66.3661 8.42906 66.6977 7.60398 67.7922L7.59738 67.7856ZM9.46536 66.0941C9.03632 66.5916 8.58747 66.8569 7.94061 66.512C7.41256 66.2202 5.74919 66.1339 6.52807 65.2119C7.18813 64.7542 7.8812 63.4408 8.77889 63.8919C9.63698 64.4822 10.8251 65.2384 9.46536 66.0941ZM10.6535 67.8121C10.0924 67.5535 10.0264 66.8503 10.4885 66.4258C11.3598 65.6696 12 66.7508 12.7921 66.9896C13.439 67.1753 12.9967 68.774 12.4093 68.7474C11.6436 68.8337 11.2871 68.0841 10.6535 67.8121ZM11.4456 70.9762C11.4324 70.2864 12.1914 70.2532 12.7195 70.2996C13.0957 70.419 13.3135 70.8436 13.5908 71.1089H13.5974C13.9076 71.487 14.6337 71.9646 14.1122 72.4754C13.6634 72.8335 13.0693 73.8219 12.4753 73.1984C12.2112 72.9397 11.9868 72.6279 11.6898 72.409C11.4654 72.2565 11.1683 72.1901 11.0693 71.885C10.9241 71.4671 11.3664 71.3212 11.439 70.9829L11.4456 70.9762ZM11.0693 75.6726C10.297 75.9777 9.66998 75.394 8.95711 75.2282C8.54127 75.0889 7.99341 74.6046 8.21784 74.1337C8.28384 73.9944 8.38945 73.875 8.34985 73.7025C7.57757 73.6096 7.27394 74.4852 6.53467 74.4919C6.44886 74.4919 6.35645 74.5449 6.28384 74.6046C6.01982 74.797 6.10563 75.2812 6.43566 75.3409C7.02312 75.3874 7.61718 75.1021 8.11223 75.6063C8.54127 75.865 9.62378 75.6792 9.07592 76.5548C8.12543 77.3044 6.78549 77.6427 5.60398 77.0988C3.04292 75.3343 2.95711 72.1901 6.44886 71.7059C7.00992 71.7258 8.91751 71.8187 8.8779 72.555C8.8515 72.7672 8.8581 73.0591 8.7987 73.2912C9.22114 73.3708 9.41256 72.7805 9.8812 72.8999C11.0363 72.9795 12.5941 75.0292 11.0693 75.666V75.6726ZM12.5083 77.4105C12.5083 77.4105 12.5017 77.4172 12.4951 77.4238C12.1914 76.986 11.3003 76.5084 11.7624 75.918C12.2442 75.3144 12.9505 75.2746 13.373 75.9313C13.6502 76.3558 13.967 76.6941 14.3565 76.9993C15.2871 77.8948 14.0726 79.7786 12.5083 77.4172V77.4105ZM10.1188 86.8563C8.33665 86.7237 7.8812 85.2644 6.90431 84.0836C6.36305 83.6259 6.75249 81.4767 7.61718 81.5232C8.74589 81.1318 12.3102 81.4966 10.231 83.1417C9.94061 83.3871 9.67658 83.7586 9.18153 83.7719C8.8647 83.805 8.89771 84.4617 9.24754 84.4286C9.53797 84.4617 9.90761 84.3821 10.1716 84.4883C10.8317 84.9526 11.7492 84.9393 12.297 85.5827C12.9571 86.6905 10.8053 86.7767 10.1188 86.8563ZM13.6304 85.0853C13.3532 85.2975 13.1353 85.3174 12.8845 85.0853C12.2838 84.601 11.4522 84.6209 10.8977 84.0173C10.3763 83.5198 11.2673 82.9759 11.6172 82.6641C12.4027 82.1202 12.9637 82.9692 13.472 83.553C14.1452 83.9908 14.5149 84.528 13.637 85.0786L13.6304 85.0853ZM13.505 81.9079C12.8977 81.7951 12.9637 80.8864 13.3465 80.5414C14.3102 79.6194 14.9307 81.2446 15.736 81.5961C16.066 81.8084 16.1782 82.3391 15.9538 82.6641C15.2211 83.3473 14.231 82.1401 13.4984 81.9079H13.505ZM14.9967 86.3655C14.6271 86.0471 14.3565 85.3572 15.0429 85.2444C15.7822 85.1847 16.1584 86.067 16.7789 86.3721C17.0627 86.591 17.2277 86.8829 17.1485 87.2676C17.1023 87.4931 16.8119 87.6789 16.6601 87.5263C16.1716 87.0421 15.4324 86.916 14.9967 86.3655ZM16.3168 89.9276C16.3697 89.0586 17.3664 89.1316 17.7756 89.7684C17.8416 90.0403 18.1254 90.1 18.297 90.2659C19.1551 90.7435 17.9538 93.1911 17.0825 92.2824C16.4225 91.6456 15.604 90.8297 16.3168 89.9209V89.9276ZM15.9604 96.8461C15.0561 97.8212 13.7096 96.8129 13.1023 95.9506C12.6667 95.4266 12.0264 95.002 12.1782 94.2193C12.1782 93.5427 11.8548 92.8794 11.8944 92.1895C11.9076 91.5792 12.33 91.1879 12.9241 91.2476C13.3928 91.4001 14.6139 91.2476 14.5281 91.9574C14.2838 92.3819 14.297 92.9391 13.8548 93.2575C13.5578 93.4498 13.373 94.0999 13.736 94.3055C14.4555 94.4979 14.9571 95.0219 15.5512 95.3934C16.1782 95.5128 16.2772 96.3619 15.967 96.8527L15.9604 96.8461ZM16.3036 95.2806C15.934 94.7632 15.3069 94.551 14.9043 94.08C14.0462 93.3901 14.7723 91.6854 15.8482 92.3487C17.0891 93.2575 17.8218 93.1646 17.2145 95.0485C17.0825 95.4531 16.6139 95.5128 16.3036 95.2806ZM19.4192 98.3916C19.0561 97.5359 18.198 97.2242 17.6436 96.5343C16.9241 95.9373 18.2244 94.3055 18.8515 95.0949C19.1023 95.3735 19.4918 95.4863 19.6964 95.9241C21.2277 96.6736 20.6733 99.4463 19.4258 98.3916H19.4192ZM18.8185 93.8213C18.3168 93.4167 18.7987 92.4018 19.0297 92.0767C19.8746 91.2078 20.4885 92.9722 21.1155 93.3901C21.505 93.7881 21.2475 94.352 21.1287 94.8097C20.4093 96.1098 19.5314 94.1729 18.8185 93.8213ZM21.0033 98.5309C21.1353 98.1528 21.7822 98.0268 21.9934 98.3651C22.2706 98.9422 22.9175 99.3402 22.9901 99.9969C23.0033 100.335 22.9901 100.674 23.0627 101.012C23.1683 101.582 22.4555 101.708 22.1848 101.271C21.5446 99.977 20.264 100.567 21.0033 98.5309ZM24.4027 104.03C23.6238 103.294 23.4456 102.922 24.0528 101.94C24.2442 101.695 24.5875 101.635 24.7525 101.914C25.637 103.466 28.132 107.287 25.6766 108.375C24.6073 108.687 23.5578 107.95 22.6799 107.406C21.967 106.995 22.0726 106.159 21.7228 105.549C21.2937 105.244 20.5611 101.927 21.2277 101.808C21.9076 101.569 22.9505 103.844 23.1617 104.421C23.2541 104.753 23.3333 105.091 23.5776 105.35C23.8746 105.755 23.7492 106.365 24.2838 106.617C26.0132 107.181 25.2145 104.594 24.3961 104.043L24.4027 104.03ZM22.7195 95.0418C22.7921 95.1413 22.8251 95.2806 22.9109 95.3536C23.9472 96.395 23.1023 98.9356 21.7294 96.866C21.5512 96.594 21.1089 96.395 21.1353 95.9373C21.1617 95.5062 21.5842 95.2939 21.7954 94.9556C21.9934 94.6306 22.4885 94.7035 22.7195 95.0352V95.0418ZM22.4159 90.9756C22.165 91.3272 22.2574 91.8645 21.901 92.0237C20.9571 93.0518 20.7129 91.7451 19.9868 91.2874C19.3466 90.5312 20.3036 89.0719 21.3598 89.4102C21.8152 89.6025 22.7393 89.7219 22.6601 90.372C22.6073 90.5776 22.5413 90.7965 22.4159 90.969V90.9756ZM23.7426 88.5677C23.2409 89.0122 23.2013 89.0188 22.6271 88.7269C21.3003 88.3754 21.3465 87.2079 22.5545 86.717C23.4456 86.8364 24.8713 87.6258 23.7426 88.5611V88.5677ZM26.7063 88.4616C25.6634 90.3189 22.6469 89.2974 25.2607 87.4003C26.0264 86.4716 22.066 86.8298 24.1914 85.0919C24.5611 84.5745 25.6172 84.8133 26.0726 85.2113C27.0693 86.0272 27.0825 87.2941 26.6997 88.455L26.7063 88.4616Z" fill="#016979"/>
</svg>
