<?xml version="1.0" encoding="UTF-8"?>
<svg id="Layer_1" xmlns="http://www.w3.org/2000/svg" width="110" height="28" version="1.1" viewBox="0 0 110 28">
  <defs>
    <style>.color { fill: white; }
    </style>
  </defs>
  <path class="color" d="M25.8,26.3c.2-.6.1-1.8-.3-2.4,0-.9-1.6-1.4-.8-2.2,1-1.4.9-2,2.5-.7.9.2.7.9.6,1.6-.3,1.8.2,3.7,1.8,4.7.5.2,1.1.3,1.5.7.3.2.7-.1,1-.1,1,0,1.6-.6,2.1-1.4.3-.4.4-.7.2-1.1-.5-.7.4-1.4-.2-2-.5-.4-.5-1-.8-1.4-.3-.6-.3-.8.2-1.2.6-.5.7-1.3,1.2-1.9.6-.5,1.1.7,1.5,1,.4.4.4.8.1,1.2-.5.6-.3,1.4-.5,2.1-.3.8.3,1.5.4,2.3.3,1,1.3,1.5,2.2,1.9,1.7,1,4.1,0,4.9-1.6.8-1.9.6-3.6-.4-5.4-.2-1,1.3-1.6,1.7-2.5.5-.6,1,.3,1.4.6.5.5.5,1.3.2,1.8-.3.4-.2,1-.5,1.4-.2.3,0,.8,0,1.1-.1.5,0,1,0,1.5-.2.7.7,1,.7,1.7,0,.4.4.7.8.8.2,0,.4,0,.6.3.7.8,1.9.5,2.8.4,2.3-.5,3.3-3.2,3-5.4-.2-.8-.1-1.8-.7-2.5-.2-.3-.2-.4,0-.6,1.7-1.6,1.6-3.2,3.6-.6.9,1.4-1.5,4.7-.3,7.1,1.2,1.9,3.9,2.7,6,1.8,2-1,2.3-3.7,1.8-5.6-.4-.3-.4-.9-.6-1.3-.2-.4-.2-.9.2-1.3.6-.4.7-1.3,1.5-1.3.7.2,1.2.3,1.3-.7,0-.6,1.3-1.4,1.8-1.2,1.4.6.3,3.2-1,2.6-.3-.1-.6-.4-1.1-.3,2.1,2.4,0,2.7.5,5.1-.2,1.5.3,2.6,1.3,3.6,1.1.9,2.9,1.1,4.1.6.9-.3.9-1.1,1.2-1.9.7-1.3-.2-2.6-.2-4,0-.1-.1-.3-.2-.4-.6-1,1-1.5,1.3-2.3.5-.8,1.8.8,1.7,1.4-.1.7,0,1.5-.6,2.1-.1.2-.2.3-.1.5.1.6,0,1.2,0,1.8,0,3,4.5,4.4,6.1,1.8,1.2-2.2-.9-5.2.3-5.5.8-.2.4-1,1.1-1,.8,0,1,.8,1.2,1.4.3.4.2.8,0,1.2-.6,1.4-.8,2.4-.2,3.8,0,.7.8.6,1.2.9.7.6,1.6.3,2.3.3.7.1,1.1-.4,1.6-.8,1.6-1.1-.6-3.3.6-4.4.7-.7,2.3-2,2.6-.4.4,1.4.4,1.1-.6,1.8-1.2,1.6-.7,3.9,1.5,4.1.6.3,1.2,0,1.8-.1.8-.2.7-1.3.6-2-.7-2-1.6-2.1,1.1-2.7.5-.2.8.5,1.2.8.5.7,1.5.6,2,1.4,1.6.9,3.3,1.9,5.2,2.2,1.6.4,5.4.5,4.6-2-.2-1.6-1.6-2.4-2.6-3.5-.5-.5-.9-1-1.6-1.2-1.9-.9-3.9-1.6-6-1.7-1.9.3-2.8-1.2-3.9-2.5-.7-1.3,2.2-1.1,1.1-3.1-.7-.8-1.1-1.7-2.3-2-1.1-.7-3-1.4-4.1-.2-1.1,1.4.2,2.3-.3,3.5-.3.5-1,.3-1.3.7-.8.5-1.3-.7-1.8-1.1-.9-2,.2-1.6.6-2.9.7-1.8.4-3.1-1.1-4.3-.5-.5-1.3-.3-1.9-.5-.5-.2-1,.2-1.6.2-.7,0-1.1.5-1.6.9-2,1.4.6,4.1-.9,5.3-1,.5-.8.7-1.6-.2-.7-.7-1.2-1.8-.7-2.8.2-.5,0-1.1.3-1.5.3-.7,0-1.4,0-2,0-.3-.4-.5-.3-.9,0-.2-.1-.4-.3-.6-.7-.7-1.1-1.6-2.1-1.6-2-.8-3.8,1.2-3.9,3.2-.5,1.4,1.6,3.2.4,4.3-1.3,1-1.8,0-2.7-.9-.9-1,.6-1.7.7-2.8.3-1.7.7-2,0-3.8,0-.4-.2-.8-.6-.9-.5-.6-1.1-1.1-1.9-1.2-1.4-.3-2.9-.1-4.2.5-.5.2-.4.8-.8,1.1-.8.9-.6,2.1-.7,3.2-.2,1,.8,1.7.6,2.5-.2.6-.4,1.1-1.1,1.4-.6.1-1.3,1.2-1.9.5-.6-.7-1.9-1.5-1.2-2.5.6-1.2,1.2-2,1.3-3.4.3-1,0-2.5-.7-3.2-2.9-2.3-8.6-1.3-8.3,3-.3,1.3.4,2.5.9,3.7.4.4.4.7,0,1.1-.3.6-.7,1.2-1.3,1.6-.5.2-1.3-1-1.2.4,0,.8-.6,1.2-1.1,1.6-.4.3-1.5-.4-1.4-.9.7-2,2.9-1.1,1.8-2.2,0,0-.2-.2-.2-.3-.3-.8.7-1.1.7-1.7.3-2.3.3-4.2-1.7-5.8-1.5-1.5-4.2-1-5.7.4-1.2,1.1-.8,2.8-.7,4.3,0,.8.7,1,.9,1.7,0,.7,1,1.1.4,1.8-.4.5-.6,1.1-1,1.5-.4.7-1,0-1.5-.3-2.6-1.5.9-1.5-.8-6.3-.1-1.5-2.1-1.9-3.4-1.8-2.8.1-4.1,3.4-3.3,5.9.4.6,1.3,1.7.6,2.4-.6.6-1.3,1-1.7,1.7-.2.3-.7.3-1,0-.3-.3-1-.8-.7-1.3.7-1,.5-2.3.6-3.4.1-1-.6-1.6-1.2-2.2-.6-.6-1.7-.2-2.5-.3-.7,0-1.2.8-1.9,1-.9.4-1.2,1.2-1.7,1.9-.5.5-.1,1.1-.2,1.7-.3,1.2.9,2.2,1.1,3.3-.1.7-1.1.9-1.1,1.6-.5,1.4-2.1.6-2.8-.3-.5-.8.5-1.5,0-2.8-.1-.7-.4-1-1.1-1.1-.6,0-1.2-.4-1.8,0-.4,0-.8,0-1.2.2-.6.2-1.2.3-1.7.8-.9.3-1.5.7-1.8,1.7-1,1.7,1.7,2.5.8,3.8-1.1.8-2,2.2-3.3,2.7-1.5,0-3.1-.1-4.5.4-1.8,0-2.9,1.6-4.2,2.7-.2.3-.3.7-.5,1.1-.4.7-.1,1.4,0,2.1.3,1.3,3.2.9,4.4.9.3,0,.6-.1.8-.3.5-.4,1.2-.4,1.6-.9.8,0,1.1-.9,1.8-1,.6,0,.2-.7,1.2-.9.3-.1.5-.3.8-.3.7.2,2.3-.1,1.8,1.2-1.4,2.1,1.8,2.9,3.3,2.2.4-.3,1.1-.1,1.2-.7,1.2-2.1-2.6-3.1-1.3-4,.7-.3,1.2-.6,1.9-.4.4,0,.7.4,1.1.5.6,0,.8.5.8,1,.2,1.3-.3,1.7.8,2.7.7,1.1,2,1,3.1,1.3,0,0,.2,0,.3,0,1-.1,1.5-.8,2-1.6h0ZM94.9,26.6c-1.2,1.1-4.3-.8-1.2-2.5,1-.3,2.2,1.9,1.2,2.5ZM15.7,25.1c1,1.3-1.1,1.9-2.1,1.5-1-.2,0-2,.6-2,.6,0,1.1.2,1.5.5ZM24.2,21c-.4.5-.8.2-1.2-.2-.2-.1-.4-.6-.2-.8.5-.6.9-1.6,1.8-.9.8.6,0,1.4-.5,1.9h0ZM41.5,13.9c0,.1,0,.3,0,.3-.7.7-.8,2.1-2.1,1.7-1.2-.5-.2-1.7.5-2.1h0c.5-.7,1.5-.9,1.7.1h0ZM44.6,13.1c.4-.7,1.4-.6,1.9,0,.7.9-.4,1.6-.8,2.3-.4.4-1.4.2-1.7-.3-.9-.9,0-1.4.6-2ZM36.1,16.3c-.4.3-.9,1.2-1.5.7-.4-.4-1.1-1-.6-1.5.6-.4,1.4-1.9,2.2-1.3,1.3,1.2,1,1.3,0,2.2h0ZM31.6,15.4c-.1.9-1.1,1.3-1.6,2.1-.3.4-.6.4-1,0-.9-.7,0-1.3.6-1.9h0c.4-.6,1.9-1.5,2-.3ZM26.5,16.8c.5.4,0,.9-.2,1.4-.2.5-1.1.8-1.5.3-.4-.7.9-2.4,1.7-1.7h0ZM22.3,18.2c-.2.4-.3.9-.7,1.2-.5.5-1,0-1.2-.5-.1-.6.8-1,1.1-1.4.4-.4,1.2.3.8.7h0ZM26.7,19.8c-.7-.9,1.1-2.6,1.9-1.3.8.5.1,1.2,0,1.8-.2.6-1.6-.1-1.8-.5ZM32.9,22.7c.3.4.8.7.9,1.2,0,1-.2,2.1-1.2,2.6-.2.6-.8.4-1.2.4-.7,0-1.4-.1-1.7-.8-.7-.3-1.3-2.5-.5-2.8.9-.5,2.2,2.9,2.9,1.9-.3-.5.1-3,.9-2.5h0ZM31.3,20.9c.8.6.6,1.5.3,2.3-.7.7-1.6-.1-2-.8-.5-1,.7-3,1.7-1.5ZM33.2,19.9c-.6,1-1.6.1-2-.6-.2-.9,1-1.4,1.5-2.2.7-.9,1.3,0,1.7.5.5.7-1.1,1.4-1.2,2.3ZM36.5,18.5c-.3-.3-.6-.9-.2-1.2.5-.2.7-.6,1-.9.6-.8,1.6.2,1.5.9-.2,1-1.3,2.5-2.2,1.2h0ZM42.5,21.5c.4.3.7.8.7,1.4,0,1.5-.2,1.6-1.3,2.7-1.1,1.3-2.5,1.4-3.9.5-1.1-.5-.9-5.4.4-4,.7.6,1.1,1.4,1.2,2.4,0,.2,0,.6.3.7.2,0,.4-.2.4-.3,0-.7.6-1.1.7-1.7.6-.4.5-2.2,1.5-1.6ZM41.7,20.6c-.3.6-.9,1.1-1,1.8-.3,1-1,.2-1.4-.3-1.3-1-.5-2.2.3-3.2,1.1-1.3,2.3.6,2.1,1.7h0ZM43.4,18.1c-1,1.5-2.8-.7-1.8-1.4.5-.2.6-.7.9-1.1.6-.8,1.1-.1,1.5.4.7.7,0,1.6-.7,2.1ZM46,17.3c-.4-.3-.3-.7-.2-1.1.2-.5.9-.4,1-1,.5-.8,1.1-.7,1.6,0,1.4,1.2-.2,1.5-.5,2.5,0,.3-.3.4-.5.4-.6,0-1-.4-1.4-.8h0ZM53.2,23.3c-.3,1.1-.9,1.8-1.8,2.7-.8.8-2.6.7-3.6,0-1-.5-1.2-5.5.5-4.7.8.6,1.2,1.9,1.3,2.9,0,.2,0,.6.4.6.6,0,.5-2.6,1.6-3.6,1.2-1.2,1.6,1.3,1.6,2.1ZM51.2,20.3c-1,1.1-.4,3-2.2.9h0c-1.2-1-.9-1.7.1-2.8.5-.3.5-1.6,1.3-1,.8.7,1.8,2,.8,2.9h0ZM51.6,17.3c-.5-.4-.9-1.6,0-1.9.8,0,1.2-1.5,2-.7.4.4,1.2,1,.7,1.6-.7.8-1.7,2.5-2.6,1ZM55.9,14.7c-.4.7-.9.8-1.5.3-.7-.6-1.3-1.5-.3-2.1.9-.6.9-.5,1.6.2.5.5.5,1,.1,1.6ZM61.1,12.7c.4.4,1,1,.5,1.6-.6.6-1.5,1.8-2.5,1-.7-.5-1.3-1.5-.3-2.1.9-.7,1.3-1.8,2.3-.4h0ZM56.5,17.1c-1.8-1.2.5-3,1.9-1.9,1.7,1.4-.5,4.2-1.8,1.9h0ZM63.3,21.5c0,.5.4.8.4,1.2,0,.6.1,1.1-.3,1.6-.5.7-.5,2-1.6,2.1-1.3.3-1.7.8-2.9-.2-2.1-.2-1.7-6.9.4-4.5.5.3.4,1.1.7,1.5.6.3.2,1.4.9,1.5.2,0,.3,0,.3-.3-.1-.5,0-.9.3-1.3.4-.6.3-1.5,1.1-1.9.3-.3.7-.1.8.3h0ZM62.1,20.2c0,.6-.7,1.2-.8,1.8,0,.4-.6.7-.8.3-.3-.5-.9-.8-1.2-1.3-.2-.4-.5-1.1-.2-1.6.6-1.2,1.1-2.2,2.3-.8.5.3.4,1,.7,1.4h0ZM64.5,17.7c-.5.3-1.1,1.5-1.8,1-.4-.6-1.9-1.4-1-2.2,1-.7,1.2-2,2.3-.5.5.5,1.1,1.1.5,1.7h0ZM64.3,15.4c-.5-.3-.7-1.5,0-1.7.4,0,.5-.2.7-.5.8-1.4,2.9.9,2.2,1.9-1.1.5-1.9,1.6-2.9.3ZM69.7,15.2c-.3-.3-.9-.7-.4-1.1.5-.4,1.3-1.1,1.9-1,.7.3,1.3,1.5.6,2-1,.6-1,1.5-2.1.1h0ZM75.3,14.1c.9,0,.5,1.2.7,1.9,0,.3-.3.5-.6.7-.4.2-.8-.2-1-.4-.9-.7-.1-2,.9-2.1ZM83,17.8c-.1-.4-.6-.6-.6-1,.2-.9,1.2-1.6,1.8-.6,1.3.9-.4,2.6-1.2,1.6h0ZM88.6,17.3c.4.4.3.9-.2,1.1-.8.4-.8.6-1.6-.3-1.3-1.1,1.1-2,1.7-.9ZM80.2,16.5c-.8,1.3-3.1-.6-1.6-1.5.8-1.1,2.3.5,1.6,1.5ZM72.5,21.7c0,1.2,1,2.7,0,3.7-.4.3-.2,1.1-.9,1.1-.9.1-2,.2-2.6-.5-.4-.4-.8-.8-1-1.4-.2-.7-.2-3.4,1-2.7.7.7,1.5,1.4,1.3,2.5,0,0,0,.2.1.1.1,0,.2-.2.2-.4.1-.4.4-.8.4-1.2,0-.6.6-.9.8-1.4.2-.3.7-.1.7.2ZM70.8,22c-.1.7-1,.3-1.1-.2,0-.5-.3-.8-.6-1.1-.5-.5.3-1,.6-1.3,1-1,.9-.9,1.8,0,.8.9-.7,1.7-.7,2.6ZM73.5,18.4c-.4.5-1.4,1.1-1.7.3-.1-.6-.4-1.3.1-1.8.4-.4,1-.9,1.6-.8,1,.5,1,1.7,0,2.3h0ZM76.3,18.8c-.5-.4-.5-1.2-.2-1.7.4-.1.6-.8,1.2-.6.6.3.9,1,.8,1.6-.3,1-.9,1.9-1.7.7ZM80.9,25.9c-.9,1.1-2.9,1.2-3.8-.1-.4-.3-.7-1-.6-1.6.3-.6,0-1.5.7-1.8.2-.1.6,0,.6.3,0,.8.7,1.5.7,2.3,0,.2.1.4.3.5.4.2.5-.2.4-.5,0-.6.5-2.7,1.3-2.7,1.3,0,.9,3,.4,3.7h0ZM79.3,22.6c-.2.4-.8.7-1,.2-.2-.7-.8-1.3-.6-2,0-.1,0-.3.2-.3.8-.4,1-1.8,1.9-.5.9.9.1,1.9-.5,2.6h0ZM80.3,18.1c.4-.4,1.5-1.2,1.8-.4.1,1,.9,1.2-.2,2-.9,1.4-2.6-.7-1.6-1.6ZM84.5,20.3c-.4-.7-.8-1.1-.2-1.6,1.3-1.3,2.1-.5,2,1-.3.6-1.4,1.8-1.8.6h0ZM88.3,26c-.7,1-2.4.9-3.2,0-.6-.5-.7-2.6.5-2.1.4.3.6.7.6,1.1,0,.4.7.5.8,0,0-.6.6-.9.9-1.4,1.1-1.1,1.5,2,.4,2.3h0ZM87.7,23.2c-.8.9-1.7,0-1.6-.9,0-.5.5-.8.8-1.1.4-.4.9.2,1.1.5.5.5.2,1.1-.3,1.5h0ZM89.2,21.5c-.4-.2-.8-.6-.8-1.1.2-.7,1-1,1.7-1.1,1.1.2,1.1,1.1.2,1.7-.3.2-.6.7-1,.5h0ZM92.5,20.8c0-.7.9-.7,1.3-.8.5-.1.8.4,1.1.7,0,0,0,0,0,0,2.1,1.9-2.3,2.4-2.4.1ZM103.8,20.3c.8.6,1.9.7,2.7,1.4,1.1,1,2.1,2.7,1.1,4.1-2,1.3-4.4.1-6.3-.9-.1,0-.3-.2-.4-.2-.6,0-1-.6-1.6-.7-.2,0-.4-.3-.5-.5-.7-1.3,2.8-1,3.4-.5.6.4,1.3.7,2,.9,1.5.2,1.1-1.5-.6-1.6-.9-.1-1.8-.4-2.6-.8-.4-.4-.9-.6-1.4-.8-2.3-2.2,3.4-.7,4.2-.3h0ZM99.1,21c.4,1.2-1.2.5-1.8.7-.6.3-1-.3-1.4-.7-1.4-1.3-.3-1.5,1-1.5,1-.3,1.6.9,2.1,1.5h0ZM92.2,19.8c-.5.2-.5.2-.9-.3-1.1-1.3,2-2.1,1.8-.4,0,.5-.5.5-.9.6h0ZM95.9,17.3c.7.7.6,1.1-.3,1.6-.8.6-2.6-.2-2.1-1.3.4-.4.9-.6,1.4-.9.4-.1.8.4,1.1.6h0ZM89.8,17.5c-.8,0-1.1-1.1-.4-1.6.7-.3,1.2-.8,1.8,0,1,1.1-.3,1.7-1.3,1.5h0ZM90.8,13.4c-.7-1,.1-2.1,1.2-2.4.9-.2,1.6.5,2.3.7,1.2.4,1.9,2,1,3-.8.9-1.8-.3-1.9-1.2,0-1-.7-.6-1.1-.2-.7.8-.9.8-1.6,0h0ZM92,14.6c.4-.3.6-.6,1-.3.4.3,1,.9.7,1.4-.9,1.4-3,0-1.8-1.1ZM86.7,14.3c0,.7,1,1.1.4,1.7-1.2,1.8-3.5-.6-1.9-1.8.4-.6,1.4-.8,1.6,0h0ZM82,11c-.5-.1-.3-.7-.5-1.1-.3-.8.1-1.4.8-1.9.7-.8,2-1.2,3-.5,0,0,.3.1.4.1.4,0,.5.5.6.9.5.9.3,1.7,0,2.6-.7,1.3-1.7-1-1.6-1.7,0-.7-.8-.8-1-.1,0,.7-.7,1-1,1.5-.2.3-.5.3-.8.2h0ZM83.3,11.3c.5-.8,1.5-.6,1.7.4,0,.5,0,1-.5,1.3-.4.3-.8,1-1.4.5-.9-.7-.6-1.6.2-2.2h0ZM81,15.3c-.8-.3-.8-1.5,0-1.9,0,0,0,0,0,0,1.5-1.7,2.6,2.4,0,1.8ZM78.1,12.5h0c1.1.8.3,2.3-.9,2.3-.9-.3-1.6-1.7-.6-2.4.5-.9,1.1-.5,1.5.1h0ZM73.5,9c-.7-.2-.5-1.1-.8-1.7-.5-1.6.7-2.9,2-3.6.6-.2,1.2.2,1.7.3.3,0,.4.4.7.6.8.5,1.1,5-.5,3.5-.2-.4-.8-3.3-1.5-2.4-.3.6,0,1.2-.4,1.8-.5.5-.2,1.8-1.1,1.5h0ZM75,8.4c.7-.9,1.2.5,1.4,1,.6.9-.4,1.5-1,2.1-.4.4-.8,0-1.1-.3-1-.9.3-1.8.7-2.7ZM73.3,11.1c.9.4,1.2,1.5.5,2-.7.6-1,.9-1.7,0-.9-.8.1-2.3,1.2-2.1h0ZM69.1,10.1c.4.6,1.7,1,1.1,1.9-.4.5-1.3,2.2-2.1,1.6-.9-1.1-2.4-1.7-.6-2.9.4-.3,1-1.2,1.5-.5h0ZM63.1,4.3c.3-.6.4-1.3,1-1.6.6-.7,1.6-.8,2.5-1.1,1.2-.1,2.4,1,2.6,2.1,0,1,0,3-1.1,3.3-.3,0-.5-.2-.5-.4,0-.5-.5-.9-.6-1.4-.2-.4-.2-1.9-.7-1.7-.5.3-.4,1-.6,1.5-.7.5-.9,1.4-1.5,2-1.3.8-1.5-2-.9-2.7h0ZM64.5,7.6c.3-.4.5-.8.9-1,.4-.3.5-1.2,1.1-.7,1.2,1,1.4,2.7-.1,3.5,0,0,0,0,0,0-.4.3-.9,1.1-1.5.6-.8-.7-1.2-1.5-.5-2.4h0ZM62.4,10c.5-1.1,1.5.1,1.8.7.5.9-.7,1.6-1.3,2.1-.5.4-1,0-1.3-.4-1.4-1.4.5-1.3.8-2.4h0ZM58.7,10.1s0,0,0,0c.6.5,1.1,1.3.2,1.8-.7.3-1.2,1.7-2.1.9-.2-.2-.3-.4-.5-.5-.5-.4-.6-1.4,0-1.8,1.2-.7,1.1-2.1,2.4-.3h0ZM52.1,7c-.4-.9-.7-1.9-.5-2.9.1-.6.1-1.4.7-1.8,1.6-1.1,4.3-2.3,5.6-.3.9.6.9,2.2.4,3.2-.3.4-.3,1.8-1.1,1.3-1.7-1.1-1.1-3.4-2-3.8-.2,0-.4.1-.4.4,0,1-.3,1.8-.7,2.7-.3.6-1.5,2.1-2.1,1.1h0ZM53.7,7.8c1.1-.4,1-3.5,2.3-1.8.5.4.5.9.8,1.4.3.9-1,1.6-1.5,2.2-1,1.1-2.5-1.1-1.6-1.9h0ZM51.1,10.7c.3-.4.7-.7,1.1-1,.5-.4.9.4,1.2.7.5.6-.2,1-.6,1.5-.9,1.3-2.5,0-1.7-1.2ZM50.7,12.2c.9.6.9,1.2.1,1.9-1.2,1.5-3.3-.3-1.5-1.4.4-.3.8-.9,1.3-.5h0ZM42.2,7.6c-.7-.7-.6-1.9-1-2.8-.2-.6.4-1.1.6-1.6.4-1,1.6-1.3,2.5-1.7,1.1-.4,2.8,1.7,3.1,2.7.5.9,0,1.9-.2,2.9-.4,1.1-1.3-.2-1.7-.7-.4-.5-1-.9-1.1-1.6,0-.2-.2-.4-.3-.7-.6-.3-.6.7-.5,1,.1.7-.2,3.3-1.3,2.4h0ZM43.9,9.5c-.5-.4-.8-.9-.4-1.5.3-.5.4-2.2,1.3-1.4.5.7,1.8,1.4,1.3,2.3-.6.9-1.3,2-2.2.7ZM42.2,10.7c.3-.6,1-.6,1.4-.2.8.9-.3,1.5-.6,2.3-.2.6-1.8.2-1.8-.4,0-.8.7-1.1.9-1.8ZM39,11.4c.7,0,.7.7.7,1.3-.1.4-.5.6-.8.9h0c-.4.3-.9,1-1.4.5-.4-.4-1.3-1-.7-1.6.3-.3.6-.5.8-.8.2-.2.2-.5.5-.6.4-.1.6.3.9.4h0ZM34.3,11.1c-.3-.8.3-1.4.4-2.1.1-.4.6-1,1.1-.7.1,0,.3.2.4.1,0-.8-.8-1.1-.8-1.8,0,0,0-.2-.1-.3-.2-.3-.7-.2-.7.2,0,.6.2,1.2-.3,1.7-.3.4,0,1.5-.9,1-.7-1-1.1-2.3-.5-3.5,1.8-2.6,4.9-2.6,5.4.8,0,.6-.1,2.5-.8,2.4-.2,0-.5,0-.7,0,0,.4.5.6.4,1.1,0,1.2-2.1,2.7-2.8,1.2h0ZM32.6,12.5s0,0,0,0c.4-.3.9-1.2,1.5-.7.6.5.6,1.2,0,1.6-.4.3-.8.6-1.1,1-.9.9-2.8-.3-.4-1.8h0ZM23.1,10.1c.1-1.8,1.6-2.2,2.8-3.2.5-.5,2.6-.2,2.6.7.4,1.1,0,4.7-1.6,2.6-.2-.3-.6-.6-.6-1,0-.3-.7-.3-.7,0,0,.3,0,.7,0,.9-.5.7-.5,1.6-1.1,2.1-1.1.7-1.2-1.5-1.3-2.2ZM24.9,13.6c-.2-.3-.2-.5,0-.7.5-.6.5-1.4,1.1-2,.5-.5,1,.4,1.4.7.5.8-.3,1.3-.9,1.9-.4.7-1,1-1.5.2h0ZM28.1,13.5c.1-.6,1-.5,1.4-.2.9,1-.7,1.6-1.1,2.4-.2.3-.7.4-1.1.2-.7-.7.5-1.7.8-2.5h0ZM23.6,15c.3-.4,1-.6,1.1,0,0,.7-.8,1.1-1.1,1.7-.2.3-.5.4-.9.4-.2,0-.4-.3-.3-.5.5-.5.6-1.2,1.2-1.7ZM20.1,16.3c.9,0,.8,1,.2,1.5-.3,0-.3.3-.5.5-.5.9-2.9-.3-2-1.2.6-.7,1.5-1.5,2.4-.8h0ZM13.2,16c-1-.9,0-2.3.9-2.9.5-.4.9-1.1,1.7-.9.7,0,1.3-.3,2-.3.6,0,1,.4.9,1-.2.5,0,1.7-.7,1.6-.4-.2-1-.2-1.3-.7-.2-.3-.8-.5-1-.1-.2.7-.7,1.2-1.1,1.8-.1.6-1,.7-1.5.4h0ZM14.7,16.3c.5-.4.7-1,1.2-1.4.7-.9,2.4-.1,1.7.9-.9,1.2-.8,2-2.7,1.4-.4-.1-.5-.6-.2-.9ZM11.6,19.4c.9-.4,1.2-1.2,1.9-1.8.6-.7,2.2.6,1.4,1.2-.3.3-.4.6-.8.8-.7,1.5-3.5,1-2.5-.3h0ZM16.2,18.8c.4-.5,1.4,0,1.7.2.9.8-.9,1.5-1.3,2.1-.4.4-1,.1-1.4,0-1.3-.7.6-1.6,1-2.3ZM11.5,21c.4.1.5.8.2,1-.6.3-1,.9-1.6,1-.3,0-.7,0-1,0-.6.1-.7-.6-.3-.9,1.3-.6.7-1.9,2.7-1.2ZM6,24.4c.7-.8,1.1-1,2.1-.3.2.2.3.5,0,.7-1.6.9-5.4,3.4-6.5.9-.3-1.1.4-2.1,1-3,.4-.7,1.2-.6,1.9-1,.3-.4,3.6-1.2,3.7-.5.2.7-2,1.7-2.6,1.9-.3,0-.7.2-.9.4-.4.3-1,.2-1.3.7-.6,1.7,2,.9,2.6.1h0ZM15,22.7c0,0-.2.1-.3.2-1,1-3.6.2-1.5-1.2.3-.2.5-.6.9-.6.4,0,.6.4,1,.7.3.2.3.7,0,.9h0ZM19,22.4c-.4-.3-.9-.2-1-.5-1-.9.3-1.2.7-1.9.8-.6,2.2.3,1.9,1.4-.2.5-.3,1.4-1,1.3-.2,0-.4-.1-.6-.2h0ZM21.4,23.7c-.4-.5-.5-.5-.2-1.1.4-1.3,1.5-1.3,2,0-.1.9-.9,2.3-1.8,1.2h0ZM21.5,26.7c-1.9-1-.8-4.1,1.1-1.4.9.8.6-3.2,2.3-1.1.5.4.3,1.4-.1,1.9-.8,1-2.1,1-3.2.6h0Z"/>
</svg>