<?xml version="1.0" encoding="UTF-8"?>
<svg id="Layer_1" xmlns="http://www.w3.org/2000/svg" width="12" height="664" version="1.1" viewBox="0 0 12 664">
  <!-- Generator: Adobe Illustrator 29.5.1, SVG Export Plug-In . SVG Version: 2.1.0 Build 141)  -->
  <defs>
    <style>
      .st0 {
        fill: #eaba6b;
      }
    </style>
  </defs>
  <path class="st0" d="M6.5,331.4c.5.3,1.1.5,1.8.4.3.2.6.5.9.8.3.3.7.5,1,.7.2.2.2.4,0,.7,0,0,0,.2-.1.3,0,.4.5.7.3,1.2,0,.2,0,.3.2.4.4.3.5.8.5,1.3v.2c-.2.5,0,.9.2,1.4-.3,1-1,1.6-1.6,2.3-.2.2-.4.3-.6.4-.6.3-1.2.6-1.7,1,0,0-.2.1-.3.1-.6,0-1.3,0-1.9-.2-1-.4-1.8-1.2-2.3-2.3,0-.1-.2-.3-.2-.4-.2-1-.5-1.8-.8-2.8-.1-.5-.2-.9,0-1.4,0-.2.1-.5.2-.8,0-.3.2-.6.4-.8.4-.4.9-.9,1.3-1.3.5-.5,1-.8,1.7-.9.3,0,.6-.1.9-.2h.1ZM7.6,339.4c0,.1,0,.2,0,.2h0s0-.1-.2-.2h0,0Z"/>
  <path class="st0" d="M7.8,138.8c.6.6,1,1.2,1.5,1.6.6.5,1,1,1.4,1.7.2.9.2,1.8.1,2.7,0,.3,0,.6-.2.9-.3,1.2-1.1,1.9-2.1,2.3-.4.2-.9.3-1.3.4-.8.1-1.6.2-2.4,0-.6,0-1.1-.3-1.5-.6-.9-.6-1.5-1.4-2-2.3-.1-.2-.1-.4-.2-.6,0-.4-.1-.7-.2-1.1-.1-.5,0-1,.2-1.6.4-.9.8-1.8,1.5-2.4.3-.2.6-.5.9-.6,1-.4,2-.7,3.1-.6.4,0,.8,0,1.2.1h0Z"/>
  <path class="st0" d="M8.9,165.5c.2.2.3.5.5.7.7.9,1.1,1.9,1.1,3.1v3.7c0,.6-.2,1-.6,1.5-.4.5-.9,1-1.1,1.7h0c-.6.9-1.1,1.4-2.4.9-.7-.3-1.3-.6-1.6-1.4,0-.2-.3-.4-.5-.6-.5-.7-1-1.5-.9-2.5v-.5c-.3-1-.2-2-.2-3s.2-1.5.6-2.1c.4-.7,1-1.2,1.7-1.5h0c1-.4,2.1-.5,3.2.2h0v-.2Z"/>
  <path class="st0" d="M6.2,93.3c-.9-.3-1.9-.3-2.9-.8-.6-.9-1.4-1.8-2-2.8-.5-.8-.8-1.6-.8-2.6s.1-.8.4-1.2c.5-.5.9-1,1.5-1.3.9-.5,1.9-1.1,3-1,.4,0,.8-.2,1.2-.2.9-.2,1.3,0,2.3.7.2.6.3,1.3.6,1.9,0,.2.1.4.1.6v.6c0,.5.3,1,.2,1.6,0,.5-.1.9-.2,1.4-.1,1.1-.7,1.9-1.7,2.3-.6.2-1.1.5-1.8.8h0Z"/>
  <path class="st0" d="M11.1,284.2c-.3.5-.6.9-.8,1.3s-.4.7-.6,1.1c-.2.3-.4.4-.8.5-.8,0-1.6,0-2.4-.4-.3-.2-.7-.3-1-.4-.2-.3-.5-.6-.6-.9-.4-.8-.8-1.5-1.4-2.1-.5-.6-.7-1.4-.9-2.2,0-.4,0-.9.3-1.2.3-.3.5-.7.8-1,.4-.4.8-.7,1.1-1.1.4-.4.8-.6,1.2-.9.6-.4,1.2-.5,1.9-.5s1.2.3,1.6.8c.2.2.4.5.4.9,0,.6.1,1.2.3,1.7.3,1.1.5,2.2.5,3.3s.2.7.3,1.1h.1Z"/>
  <path class="st0" d="M10.2,313.2c-.7.5-1.4.9-2.2.7h-.4c-.4,0-.8,0-1.2-.2-.3-.1-.6-.2-.9-.2-.9,0-1.6-.4-2-1.2-.3-.7-.7-1.3-1-2,0-.1,0-.3,0-.5,0-.4-.2-.8-.3-1.3,0-.2,0-.3,0-.5.2-1,.8-1.7,1.6-2.2.8-.6,1.6-.9,2.5-1.2h1.7c.3,0,.5.2.6.4.3.4.5.8.8,1.2.1.2.2.4.3.6.3,1,.6,1.9.8,2.9,0,.5.1,1,0,1.4-.2.6-.2,1.3-.3,2h0Z"/>
  <path class="st0" d="M3.5,421.6c-.2-1.2-.3-2.1-.5-3.1.3-.6.6-1.1.9-1.7.6-.4,1.1-.9,1.7-1.3.5-.4,1.1-.5,1.7-.3.8.2,1.6.4,2.4.6.3,0,.5.3.7.6.1.2.2.4.3.6.1.6.2,1.3.3,1.9,0,.3,0,.5.2.7.2.3.2.6.2.9-.1.8-.3,1.6-.8,2.2-.2.2-.3.4-.5.6-.6.6-1.1,1.1-2,1.1s-.7.1-1,.2c-.3,0-.7-.2-1-.2s-.5-.2-.6-.4c0-.1-.2-.3-.2-.4-.4-.5-.7-1-1.2-1.4-.2-.1-.4-.4-.5-.5h-.1Z"/>
  <path class="st0" d="M7.1,359.4c.3.2.4.3.5.4.3.2.6.4,1,.2h.3c.3,0,.6,0,.8.4,0,.1.2.2.3.4,0,.2-.2.5-.2.7s0,.5.2.8c.2.4.3.8.5,1.2.2.3.2.7.2,1.1,0,.6.1,1.2.2,1.8-.3.5-.7.9-1.1,1.5-.3.5-.8.8-1.2,1.2s-.4.3-.7.3-.3,0-.4.1c-.6.6-1.3.4-2,.1-.3-.1-.5-.3-.7-.6-.2-.2-.3-.4-.5-.6,0-.2-.3-.3-.4-.4-.4-.9-.5-1.8-.5-2.7s0-1.5-.2-2.2c0-.3,0-.5.2-.8,0-.1.2-.3.3-.4.2-.2.4-.5.5-.8.2-.7.6-1,1.3-1.2.5-.1,1-.3,1.5-.5h0Z"/>
  <path class="st0" d="M4.5,65c-.4-.4-.8-.8-1.2-1.2-.6-.6-.9-1.4-.8-2.3v-.5c-.4-.5-.3-1,0-1.5v-.2c.2-.7.2-1.4.6-2,.8-.6,1.7-1.2,2.7-1.5h.4c.4,0,.8,0,1.2,0,.6,0,1.1.2,1.4.7.3.4.5.9.7,1.4.3,1,.5,2,.6,3,0,1.3-.3,2.5-1,3.6-.2.3-.5.6-.9.6-.6,0-1.3.3-1.9,0-.5,0-1-.2-1.6-.3h0v.2Z"/>
  <path class="st0" d="M2.1,34c.3-1.1,0-2.1,0-3,.5-.9,1.2-1.5,2-1.9.5-.2.9-.3,1.5-.4.6,0,1.1,0,1.9,0,0,0,0,.2.3.4.6.5,1.1,1,1.8,1.4.3,0,.4.4.5.8.1.5.2,1,.3,1.6.2,1.4,0,2.8-.8,4-.2.3-.5.6-.8.7-.7.2-1.5.2-2.3,0,0,0-.3,0-.4-.2-.3-.2-.6-.3-1-.4-.9-.2-1.6-.7-2.1-1.4-.3-.4-.6-.8-1-1.3h0v-.2Z"/>
  <path class="st0" d="M6.5,120.4h-1.2c-.6,0-1-.3-1.3-.7-.2-.2-.3-.4-.4-.7,0-.3-.2-.5-.5-.6-.5-.4-.7-.9-.7-1.5s0-1-.2-1.4c-.2-.9,0-1.7.6-2.4.2-.3.5-.5.7-.8.7-.8,1.6-1,2.5-.8.6,0,1.1.2,1.6,0,.3,0,1.4.2,1.6.4.1,0,.2.2.3.4.4,1.3.6,2.7.4,4.1-.1,1.1-.5,2.2-1,3.2-.2.5-.6.7-1.1.8h-1.4.1Z"/>
  <path class="st0" d="M10.3,258.7c-.4,0-.9,0-1.3-.2-.5-.2-1-.4-1.6-.6-.5-.1-1.1-.1-1.6-.3-1.1-.3-1.9-1.1-2.7-2-.2-.3-.3-.7-.2-1.1,0-.5.3-1,.5-1.5.2-.3.3-.7.4-1,0-.4.3-.7.5-1,.6-.7,1.3-1.1,2.2-1.4.6-.2,1.2-.2,1.8,0,.3,0,.6.2.8.4.6.8,1.3,1.5,1.5,2.6.1.8.3,1.7.7,2.5v2.4c0,.7-.4,1.2-1.1,1.4h0v-.2Z"/>
  <path class="st0" d="M9.3,444c.2.2.4.4.6.5.1.4.3.8.4,1.2.3.7.3,1.4.4,2.2,0,.8-.2,1.6-.6,2.3-.3.6-.7,1-1.4,1.2-.1,0-.3.1-.4.2-1,.9-2.1,1-3.3.9-.2,0-.4-.1-.5-.2-.7-.6-1.2-1.4-1.2-2.5s.3-2.8.8-4.1c.3-.8.7-1.5,1.5-2,.3-.2.5-.5.8-.7.4-.3.8-.5,1.3-.3.2,0,.5,0,.7.1.5.1.8.4.8,1h0c0,.1.1.2.1.2Z"/>
  <path class="st0" d="M8.2,194.5c.3.5.4,1,.8,1.4.2.2.3.5.5.8,0,.2.1.4.2.6.6,1.1.6,2.3.5,3.4,0,.2,0,.5-.1.6-.4.5-.5,1.1-.7,1.6-.3.6-.7.9-1.4.7-.7-.2-1.4-.5-2.2-.7-.3,0-.6-.3-.9-.5-.2-.1-.3-.3-.5-.4-.7-.4-1.1-1.1-1.4-1.9,0-.3-.2-.6-.2-.9v-1.6c0-.8.3-1.5.8-2.1.2-.2.3-.5.6-.8.4-.5.9-.8,1.6-.8s1.5,0,2.3.5h.1Z"/>
  <path class="st0" d="M8.7,617.2c-.6,0-1.2.2-1.8.3-.6-.1-1.2-.2-1.8-.7-1-.2-1.6-.8-2.3-1.5-.5-.5-.9-1.1-1.2-1.6-.3-.5-.3-1.1,0-1.7.5-1,1.3-1.7,2.2-2.1.2,0,.5-.2.7-.3.8-.4,1.7-.4,2.5-.3h.3c.6.4,1.2.7,1.6,1.4s.8,1.5,1.1,2.3c.2.4.2.8.2,1.3s-.1.6-.3.9c-.3.3-.5.7-.8,1s-.3.7-.5,1h.1Z"/>
  <path class="st0" d="M7.4,1.1c.5.3,1,.6,1.5.9.3.2.5.4.6.7.1.2.2.5.4.7.2.3.3.7.3,1.1v2.1c0,.8-.2,1.6-.8,2.2-.2.3-.5.6-.7.8-.9.4-1.7.2-2.6,0-.8-.5-1.6-1.2-2.3-2-.3-.3-.5-.7-.7-1.1-.2-.5-.5-1.1-.7-1.6,0-.2-.2-.5-.2-.8,0-.8.2-1.4.7-1.8.6-.5,2.4-1.3,3.1-1.2h1.4Z"/>
  <path class="st0" d="M9.7,388.4c0,.4,0,.9.6,1.1.1,0,.3.2.3.3,0,.9.2,1.8.4,2.7v.4c-.6.9-1.1,1.6-1.6,2.4-.3.2-.7.3-1,.6-.8.8-1.8.9-2.8.9s-.7-.2-.9-.5c-.7-.9-1.1-2-1-3.1,0-.6,0-1.3-.2-1.8.5-1.4,1.3-2.3,2.2-3.2.2-.2.5-.4.8-.4h2.3c.2,0,.4.2.5.3.2.1.3.2.5.4h0Z"/>
  <path class="st0" d="M3.5,226.9c0-.2,0-.7,0-1.1.2-1.1.8-1.8,1.5-2.6.2-.3.5-.5.8-.7.7-.6,1.5-.7,2.3-.4.3,0,.5.3.8.5.2.2.4.5.6.7.1.2.3.5.3.7.2.9.4,1.8.4,2.7s0,.8-.1,1.2c-.1.3,0,.5,0,.8.1.5,0,1-.1,1.4-.2.5-.8.9-1.4.8-.6-.2-1.3-.2-2-.2s-1.5-.3-2.1-.8-.9-1.1-1-1.9v-1.1h0Z"/>
  <path class="st0" d="M5.6,645c-.5-.2-1-.4-1.5-.5-.9-.2-1.6-.8-2.3-1.5s-.3-.5-.3-.9c.1-.7.3-1.4.4-2,.6-.6,1.2-1.1,1.7-1.7.3-.3.7-.6,1.1-.9.5-.5,1.1-.5,1.7-.5s.9.3,1.2.7c.3.4.6.8,1,1.2s.8,1.1,1,1.8c0,.2.1.4.1.6v2.1c0,.5-.3.8-.7.9-.7.3-1.3.5-2.1.5s-.8,0-1.3.1h0Z"/>
  <path class="st0" d="M10.5,556.9c.3.9.6,1.9.9,2.9.2.7,0,1.1-.5,1.5-.4.3-.8.5-1.2.5s-.6,0-.9,0c-.6.2-1.2.2-1.8,0h-1c-.8-.3-1.4-.8-2.1-1.3,0,0-.2-.4-.3-.6v-2.4c0-.3,0-.6.3-.9.2-.3.5-.6.6-.9.3-.8.9-1.2,1.5-1.5.5-.4,1.1-.4,1.7-.2.6.2,1.1.5,1.4,1.1.3.5.8,1,1.3,1.6h.1ZM7,560.4h0s0,.2.2.2h0c0,0,0-.2,0-.2h0Z"/>
  <path class="st0" d="M8.3,471.5c.2,0,.3-.2.5-.2.3,0,.7.2.7.4v1.1c0,.3.3.6.3.9s.2.7.3,1.1c0,.4,0,.7-.1,1.1-.3.6-.6,1.2-.9,1.8-.1.3-.3.5-.6.7s-.6.4-.9.6c-.4.2-.7.3-1.2.2-.2,0-.5,0-.7-.1,0,0-.3,0-.4-.1-.9-.6-1.8-1.2-2.4-2.2,0-.2,0-.4,0-.6.3-1,.4-2,.9-2.9.2-.5.5-.9.9-1.3.6-.7,1.2-1.1,2.1-.8h.3c.5-.3.9.1,1.3.3h0Z"/>
  <path class="st0" d="M4.1,505.1c-.3-.4-.6-.8-.8-1.3-.4-.7-.4-1.5,0-2.3.4-.9,1-1.6,1.8-2.1.6-.4,1.2-.5,1.9-.6.2,0,.5,0,.7.2.5.3.9.7,1.4,1,.4.3.7.8.7,1.4s0,.7.1.9c.4,1.3,0,2.5-.6,3.7-.2.3-.4.6-.6.9-.7.2-1.3.2-1.9-.2-.5-.3-1.1-.6-1.5-1-.3-.2-.6-.3-1-.5h-.2Z"/>
  <path class="st0" d="M5.4,582.4c.6,0,1.1.2,1.6,0,.3,0,.5,0,.7,0,.6.3,1.1.7,1.7,1.1.2,0,.3.3.4.5.4.7.7,1.4,1.1,2.1.3.6.3,1.2.2,1.9,0,.2-.1.4-.4.5-1,.3-1.9.6-3,.6h-.7c-.3,0-.7-.3-1-.3-.6,0-1.1-.6-1.6-.9,0,0-.2-.2-.3-.4,0-.2-.3-.5-.4-.7-.2-.3-.6-.5-.6-.9s.3-.7.4-1c.3-1,1-1.7,1.7-2.4h0l.2-.2Z"/>
  <path class="st0" d="M8.1,534.5c-.8,0-1.6-.3-2.3-1,0,0-.2-.2-.3-.3-.8-.8-1.3-1.7-1.7-2.8,0-.4-.2-.7,0-1.1.3-.9.9-1.7,1.6-2.3.6-.5,1.3-.7,2-.6.6,0,1.2.3,1.7.7.3.2.5.5.6.9,0,.2.1.4.2.6.3.9.4,1.8.2,2.7-.1.6-.3,1.2-.3,1.9s-.6,1.3-1.3,1.3h-.4Z"/>
</svg>